<?xml version="1.0" encoding="utf-8"?>
<!-- Generator: Adobe Illustrator 24.0.1, SVG Export Plug-In . SVG Version: 6.00 Build 0)  -->
<svg version="1.1" id="Capa_1" xmlns="http://www.w3.org/2000/svg" xmlns:xlink="http://www.w3.org/1999/xlink" x="0px" y="0px"
	 viewBox="0 0 569.6 298.3" style="enable-background:new 0 0 569.6 298.3;" xml:space="preserve">
<style type="text/css">
	.st0{fill-rule:evenodd;clip-rule:evenodd;fill:#2A9838;}
	.st1{fill-rule:evenodd;clip-rule:evenodd;fill:#2A9838;stroke:#2A9838;stroke-width:0.216;stroke-miterlimit:22.9256;}
	.st2{fill-rule:evenodd;clip-rule:evenodd;fill:#E20D13;}
	.st3{fill-rule:evenodd;clip-rule:evenodd;fill:#E20613;}
	.st4{fill-rule:evenodd;clip-rule:evenodd;fill:#E20D13;stroke:#E20D13;stroke-width:0.216;stroke-miterlimit:22.9256;}
	.st5{fill-rule:evenodd;clip-rule:evenodd;fill:#EA5853;}
	.st6{fill-rule:evenodd;clip-rule:evenodd;fill:#F08C8C;}
	.st7{fill-rule:evenodd;clip-rule:evenodd;fill:#EE7B76;}
	.st8{fill-rule:evenodd;clip-rule:evenodd;fill:#F6BBB7;}
	.st9{fill-rule:evenodd;clip-rule:evenodd;fill:#E63B2C;}
	.st10{fill-rule:evenodd;clip-rule:evenodd;fill:#EE7880;}
	.st11{fill-rule:evenodd;clip-rule:evenodd;fill:#1D1711;stroke:#673918;stroke-width:0.216;stroke-miterlimit:22.9256;}
	.st12{fill-rule:evenodd;clip-rule:evenodd;fill:#1D1711;}
	.st13{fill-rule:evenodd;clip-rule:evenodd;fill:#11110C;stroke:#11110C;stroke-width:0.216;stroke-miterlimit:22.9256;}
</style>
<g>
	<g>
		<g>
			<path class="st0" d="M171.5,178.9c-1.6,0.6-3-0.6-4-1.5c0.2-1.1,0.5-2.4,1.9-2.9C175,172.4,172.5,178.5,171.5,178.9L171.5,178.9z
				 M180.6,169.1l0.8-2c-1.4-4-1.7-3.6-5.1-2.3c-2.4,0.9-6,1.3-5.1,3.9c0.4,1.3,1.3,0.9,2.3,1.7
				C175.5,172.1,176.3,176.3,180.6,169.1L180.6,169.1z M113.7,159.3c2.8,0.7,13.5,7.9,20.1,9.9c3.7,1.1,5.2,1.2,6.9,3l0.5-0.3
				l5.3,1.1c1,0.3,1.5,0.4,2.5,0.7c3.7,1.1,2.6-0.3,6.1,0.5c3.6,0.8,2.4-0.3,4.8,1.2l2.2,1.4c1.4,1.2,1.6,3.6,2.6,5.7l7.8,8.3
				c2.9,2.5-0.7-0.1,5.1,1.4c4.7,1.2,8.7-3.1,10.5-4.9l1.9-2.2c3-4.4,1.4-2,1.9-5.1c0.2-1.4-0.1,0.1,0.3-1c0.1-0.1,0.3-0.5,0.4-0.7
				c1.6-3.3,1.2-3.5,1.8-6c0.8-3.4,0.7-2-0.5-6.3c-1.4-4.9,2.6-2.6-2.3-13c-2.9-0.5-2.8-0.6-4.1-1.7c-1.5-1.7-1.7-0.3-2.9-1.7
				c-2.1-0.5-1.7-0.7-3.5-1.5c-0.7-0.3-2.1-0.8-2.8-1c-2.4-0.7-4.3,0.2-6.4,1.7c-0.1,2.7,0.4,1.2-2.3,3.4c-4.8,4,1.4,4.4,2.1,9
				c0.2,1.7,0.2,2.1-2,2.5c-2.4,0.5-3.2-1.1-3.2-1.1l-0.2-0.8c-1.7,0.7-3.5-0.3-5.2-1.2c-4.9-2.6-6.5-0.9-11-2
				c-2.2-0.5-2.6-1.7-5.2-0.8c-2.1,0.2-3.4-0.4-5.2-1c-1.7-0.6-2.9-1.1-4.6-1.6l-4.2-1.6c-0.1,0-0.2-0.1-0.3-0.2c0,0-0.7-0.4-1-0.5
				c-3.1-1.5-4.6-3.2-8.7-5.9l-0.6-0.4c-3.2-2.1-1.4-1.3-3.1-2.9l-1.8-1.4c-1-0.9-0.7-1.1-1.6-1.9c-2.1-1.9-0.7,1-3.4-3.8l-1.7-2.1
				c-3.3-2.9-1.2-1.8-3.3-4.2c-6.2-7.1-0.9-5.8-5.6-9.7c-1.6-1.3-0.2-2.8-2-4.4c-4.4-4-2.7-14.5-8.2-17.8c-2-1.2-3.3,10.6-6.1,11.7
				c0,0.7,0,1.4-0.2,2.1c-0.8,4.1-0.3,2,1.5,4.3c1.8,2.3,4.9,13.6,6.2,15.6c1.8,2.8,0.8,0.2,2.7,2.5c1.7,2.1,1.8,5.6,3.4,7.6
				c1.3,1.5,1.3,0.2,2.5,2.3c1.2,2.1,0.2,1.9,2.2,3.6c1.3,1.1,0.7,0,2.2,2.1l4.8,5c0.7,0.6,1.7,1.1,2.9,2
				C112.8,157.7,113.2,157.9,113.7,159.3z"/>
			<path class="st1" d="M113.4,159.1c-0.5-1.3-1-1.6-2.1-2.4c-1.1-0.9-2.2-1.4-2.9-2l-4.8-5c-1.5-2.1-0.9-1-2.2-2.1
				c-1.9-1.7-0.9-1.5-2.2-3.6c-1.3-2.1-1.2-0.7-2.5-2.3c-1.7-2-1.8-5.5-3.4-7.6c-1.9-2.3-0.9,0.3-2.7-2.5c0.2-7.3-4.4-13.3-6.2-15.6
				c0.9-4-2.4-0.2-1.5-4.3c0.1-0.7,0.2-1.4,0.2-2.1c2.8-1.1,5.4-5.5,7.4-4.3c5.5,3.3,4.3,4.8,6,10.8c1.7,1.6,0.9,3.2,2.5,4.5
				c3.7,4.6-0.3,2.1,5.9,9.2c2.1,2.4,0,1.4,3.3,4.2l1.7,2.1c2.7,4.9,1.3,1.9,3.4,3.8c0.9,0.8,0.6,1,1.6,1.9l1.8,1.4
				c1.7,1.7-0.1,0.9,3.1,2.9l0.6,0.4c4.2,2.7,5.6,4.5,8.7,5.9c0.3,0.1,1,0.5,1,0.5c0.1,0,0.2,0.1,0.3,0.2l4.2,1.6
				c1.7,0.6,2.9,1.1,4.6,1.6c1.8,0.6,3.1,1.2,5.2,1c-1.6-2.3-1-0.9-3.9-2c-1.5-0.6-2.4-1.3-3.7-1.8c-13.1-4.7-8.7-4.6-14.6-7.6
				c-1.3-0.7-2.2-1.5-3.3-2.5c-0.7-0.7-1-1.1-1.7-1.7c-4.3-3.8-3-2-7.6-8.6c-1.4-2-1.8-1.5-3-3.3c-1-1.5-1.5-3.3-2.6-4.9l-4.7-10.3
				c-9.3-32.7-28.7-37.4-33.3-40.1c-2.2-1.3-9.8,0.3-14,11C52.1,86,71.7,92,76.6,107.3c0,4.4,7.7,10.1,10.1,19.7l10.1,17.3l6.2,7
				C105.2,153.8,110,159.1,113.4,159.1z"/>
			<path class="st1" d="M140.8,171.6c1.2,1.9,3,2.7,5.2,2.9c2.1,0.2,1,0,2.8,0.4c1.5,0.3,1.1,0.2,2.7,0.3c1.1,0.1,4.5,0.5,5.5,0.7
				c2.3,0.6,2.8,1.2,3.9,4.2c1.4,3.9,1.7,2.9,3.7,5.1c2.3,2.6,5.5,6.4,8.1,7.5c1.8,0.8,2.5,1.4,4.8,1c6.2-2.1,8.7-2.2,12-6.5
				c1.2-1.5,2.5-3,3-4.5c0.3-0.9,0.2-1.5,0.6-2.7l2.6-7.6l-0.7-12.2c-0.1-2-0.1-4.2-0.1-6.1c-0.1-0.1-1.2-1.2-1.5-1.5
				c-0.3-0.2-1.3-1-1.5-1.1c-1.6-1.1-2.2-1.4-4.7-0.6c1.3,1.1,1.2,1.2,4.1,1.7c4.9,10.4,0.8,8.1,2.3,13c1.2,4.3,1.3,2.9,0.5,6.3
				c-0.6,2.5-0.3,2.7-1.8,6c-0.1,0.1-0.3,0.5-0.4,0.7c-0.5,1.1-0.1-0.4-0.3,1c-0.5,3.1,1.1,0.7-1.9,5.1l-1.9,2.2
				c-1.8,1.9-5.8,6.1-10.5,4.9c-5.8-1.5-2.2,1.1-5.1-1.4l-7.8-8.3c-1-2.1-1.2-4.5-2.6-5.7l-2.2-1.4c-2.4-1.5-1.2-0.3-4.8-1.2
				c-3.5-0.8-2.4,0.5-6.1-0.5c-1-0.3-1.5-0.4-2.5-0.7L140.8,171.6z"/>
			<path class="st0" d="M79.1,109c-9.4-24.6-39.3-37.6-23.5-4.4c3.7,7.7,9,32.4,9.5,52.3c9.2-0.8,17.2-1.2,18.3-2.4
				c-2.2,2.8-11.7,3.6-18.3,3.9c0.3,21.9-5.5,37-26.5,14.9c-10.3-10.9,5.2-14.3,20.8-15.9c-1-17.5-7-38.1-12.5-48
				c-24.4-43.7,25-52.2,46.5-5.8c1.4,3.9-0.7,8.3-4.6,9.8C84.7,114.9,80.5,112.9,79.1,109L79.1,109z M59.4,158.5c-0.5,0-0.9,0-1,0
				c-42.6,8-2.6,20.3-1.6,20.4l0,0c-0.1,0,0,0-0.1,0C59,173.8,59.7,166.5,59.4,158.5z"/>
			<path class="st0" d="M172.4,181.7c-1.6,0.6-3-0.6-4-1.5c0.2-1.1,0.5-2.4,1.9-2.9C175.9,175.2,173.4,181.3,172.4,181.7
				L172.4,181.7z M181.5,171.9l0.8-2c-1.4-4-1.7-3.6-5.1-2.3c-2.4,0.9-6,1.3-5.1,3.9c0.4,1.3,1.3,0.9,2.3,1.7
				C176.4,174.9,177.2,179.1,181.5,171.9L181.5,171.9z M114.6,162.1c2.8,0.7,13.5,7.9,20.1,9.9c3.7,1.1,5.2,1.2,6.9,3l0.5-0.3
				l5.3,1.1c1,0.3,1.5,0.4,2.5,0.7c3.7,1.1,2.6-0.3,6.1,0.5c3.6,0.8,2.4-0.3,4.8,1.2l2.2,1.4c1.4,1.2,1.6,3.6,2.6,5.7l7.8,8.3
				c2.9,2.5-0.7-0.1,5.1,1.4c4.7,1.2,8.7-3.1,10.5-4.9l1.9-2.2c3-4.4,1.4-2,1.9-5.1c0.2-1.4-0.1,0,0.3-1c0.1-0.1,0.3-0.5,0.4-0.7
				c1.6-3.3,1.2-3.5,1.8-6c0.8-3.4,0.7-2-0.5-6.3c-1.4-4.9,2.6-2.6-2.3-13c-2.9-0.5-2.8-0.6-4.1-1.7c-1.5-1.7-1.7-0.3-2.9-1.7
				c-2.1-0.5-1.7-0.7-3.5-1.5c-0.7-0.3-2.1-0.8-2.8-1c-2.4-0.7-4.3,0.2-6.4,1.7c-0.1,2.7,0.4,1.2-2.3,3.4c-4.8,4,1.4,4.4,2.1,9
				c0.2,1.7,0.2,2.1-2,2.5c-2.4,0.5-3.2-1.1-3.2-1.1l-0.2-0.8c-1.7,0.7-3.5-0.3-5.2-1.2c-4.9-2.6-6.5-0.9-11-2
				c-2.2-0.5-2.6-1.7-5.2-0.8c-2.1,0.2-3.4-0.4-5.2-1c-1.7-0.6-2.9-1.1-4.6-1.6l-4.2-1.6c-0.1,0-0.2-0.1-0.3-0.2c0,0-0.7-0.4-1-0.5
				c-3.1-1.5-4.6-3.2-8.7-5.9l-0.6-0.4c-3.2-2.1-1.4-1.3-3.1-2.9l-1.8-1.4c-1-0.9-0.7-1.1-1.6-1.9c-2.1-1.9-0.7,1-3.4-3.8l-1.7-2.1
				c-3.3-2.9-1.2-1.8-3.3-4.2c-6.2-7.1-0.9-5.8-5.6-9.7c-1.6-1.3-0.2-2.8-2-4.4c-4.4-4-2.7-14.5-8.2-17.8c-2-1.2-3.3,10.6-6.1,11.7
				c0,0.7,0,1.4-0.2,2.1c-0.8,4.1-0.3,2,1.5,4.3c1.8,2.3,4.9,13.6,6.2,15.6c1.8,2.8,0.8,0.2,2.6,2.5c1.7,2.1,1.8,5.6,3.4,7.6
				c1.3,1.5,1.3,0.2,2.5,2.3c1.2,2.1,0.2,1.9,2.2,3.6c1.3,1.1,0.7,0,2.2,2.1l4.8,5c0.7,0.6,1.7,1.1,2.9,2
				C113.7,160.5,114.1,160.7,114.6,162.1z"/>
			<path class="st2" d="M297.6,250.4c1.1-0.4,8.2-2.3,8.2,1.7c-0.7,0.7,1.1,0-1,0.7c-1.5,0.5-0.8-0.2-3.6,0.1
				C298.1,253.2,298.6,253.4,297.6,250.4L297.6,250.4z M372.1,218.2c0.3-1.5,1-1.9,3.2-2.6c1.6-0.5,2.3-0.4,3.9-0.8
				c-0.2,0.4,0.6,1-3.2,2.8C374.1,218.4,373.7,218.6,372.1,218.2L372.1,218.2z M346.8,226.8c0,0,1.1-1.3,1.3-1.5
				c1.2,3.1,3.4,2.7,3.4,2.7c0-0.1,0.3,0.1,0.5,0.1c-7.9,4.1-8.6,4.6-11.4,0.9L346.8,226.8L346.8,226.8z M332.1,227.2l-8.4-1
				c0.1-0.8,1.7-1.6,2.9-1.9c2-0.4,1.8,0.3,2.7,0.4c3.2,0.4,4.1-2.5,6.4,0.4C334.6,226.3,334.4,226.8,332.1,227.2L332.1,227.2z
				 M332.7,219.8c-2.6,0.5-1.7-0.1-2.5-0.9c0.5-0.7,0.1-0.6,1.1-1.1c0.2-0.1,0.7-0.3,1-0.4c1-0.3,1.2-0.1,1.9-0.1
				C334.3,219,334.7,219.4,332.7,219.8L332.7,219.8z M325.7,216.7c2.2,0.7,0.8-0.2,1.8,1.5c-2.4,2.3-4.3,0.6-4.6-1.7
				C324.2,216.3,324.8,216.4,325.7,216.7L325.7,216.7z M291.7,224.5c3.1-0.4,3.2,1.3,3.2,1.3c-1.7,1.5-4.7,3-4.5-0.6
				c0.1-0.1,0.2-0.3,0.3-0.3L291.7,224.5L291.7,224.5z M248.6,207.9l1.1,1.1c2.7,0.2,6.1,2.1,6.1,2.1c0-0.1,0.3,0.2,0.5,0.2
				c1.1-2.1,3.6-1.1,4.9-0.7l5.2,1.4l-0.3,2.7c-2.6,1.4-2.2,1-3.8-0.2c-0.9,0.4-2.3,1.4-2.6,1.5c-2.6,0.7-1.1,0-1.9-0.5l-0.5-0.9
				c-2.8,0.7-2.7,0-4.7-0.2c-1.4,0.3-6,0.5-6.9,0.3c-2-0.4-1.7-0.6-3.2-1c-2.1-0.6-1.6,0-3.2-1.4c-2.4,0.5-3.3,0.7-4.6-1.5l-0.4-1.1
				c-2.9-0.3-4.9-2.2-5.9-5.2c1.9-0.3,1.3,0,3.2,0.7l2.4,0.5l1.3-0.6c0-0.1,0.1-0.2,0.2-0.3c-0.9-3.1-1-2.8-2.9-3.9l2.6-1.5
				c3.1,2.6,3.3,1.9,4.8,6.8c6.3,0.1,1.6,1,5.4,1.3C249.6,207.6,247.3,207,248.6,207.9L248.6,207.9z M240.9,180.1l-2.9-0.6
				c-0.1,0-0.3,0.1-0.3,0.1l-0.7,0.3c0.2,0.9,0.8,1.5,1.8,2.3l1.9,0.9c4.7,1.6,3.7,3.7,7.2,4c2.4,2,1.9,0.8,4.2,2.2
				c1.4,1.2,2.1,1.3,3.8,2.2c1.7,0.9,1.9,1.2,3.9,1.6c0,0,0.6,1.2,0.6,1.3l0.2,1c0,0.2,0,0.4,0,0.5c0,0.1,0,0.4,0,0.5
				c-2.6,0.1-0.7,0.2-2.6-0.5c-0.3-0.1-0.4-0.2-1.1-0.5c-0.9-0.3-0.1-0.1-1.3-0.3l-0.3-0.6l-0.8-0.5c-2.1-1.3-3.5-1.6-5.7-2.1
				l-0.8,2.4c-1.3,3.8-0.3,2.4,4.8,5.5l4.3,2.2l2.5-0.3l1.7,1.4c0.8,0.9,0.8,1.3,1.5,1.8c3-1.6-1.6-1.3,4.6-2.3
				c-2.8-5.8-3.9-0.7-6.3-6.8l3.6-0.9c0.1-0.1,0.3-0.1,0.4-0.2c-0.3-3.2-0.4-1.6-2.1-3.1c-3.3-3,0.5-1.5-6.4-2.4
				c-4.8-0.6,0.4,0.8-6-4c-2.2-1.6-1.2-0.7-3.5-1.3c-2.5-0.7-2.5-1.9-4.3-3.1L240.9,180.1L240.9,180.1z M232.4,180.4
				c1.7,0.2,0.2-0.3,2,0.7l-0.2,2.1l-3.2-0.5l-0.6-2.2C231.1,180.3,231.8,180.3,232.4,180.4L232.4,180.4z M204.1,144.4
				c0,3.5-1.8,3.4-1.3,6.7c0.5,3,1.8,5.2,3.2,7.8c5-1,1.3,4.2,1,5.5c1.2,1.8,2.8,0.9,5.3,3.7c-1.5,4.8-2.3,1.9,0.8,7.7l0.1,0.1
				c0.1,0,1.1-0.1,1.5,0.1c1.5,5,1,2.1,2.8,4.7c0.9,0.4,0.2-0.3,1.2,0.7c1,1,0.6,1.4,1.4,2.5c0.9,1.3,2,0.4,1.4,3.2
				c-3.4,0.3-0.4-1-3.4-1.4l-1.1,4.2c1.7,1.8,2.2,0.8,3.2,4.8c-3.5,2.1-1,0.6-2.3,0.3l-0.8-1.1c-2,0.7-3.1,1-3.9,4.6l-6.7-4.2
				c-2-1.1-4.8-2.4-6.5-4.5l-1.2-1c-5.2,2-2.2,1.6-4.9,4c-2.5,2.1-2.3,1.1-4.4,3.9c-1.1,1.5-0.8,0.7-1.4,2.3
				c-3,7.6-4.4,6.9-1.6,14.3c2.1,5.5,7.2,9,11.4,12.2l8.8,6c7.7,4.9,14.4,10,23.2,12.1l4.7,1.4c1.4-0.4,2.3-0.1,4.8,0.2
				c5.5,0.8,11.9-0.6,13.7,0.1c0.1,0,4.2,4,8.3,0.9c-2.3-4.1-3.1,0.8-4.3-3c3.6-1.6,7.6,0.1,10.8,1.6c6.1,2.8,9.3,2.5,8.8,5.4
				c-2.6,0.8-1,0.2-2.1-0.3c-0.1-0.1-0.8-0.6-1-0.7c-0.1-0.1-0.2-0.2-0.3-0.2l-5.9-1.6c-6.7-0.6-1.7-1.5-5.8-0.7
				c3,4.4,1.7,1.6,4.5,3.4c1.1,0.7,0.4,0.2,1.4,1.3c1,0.9,2.8,1.6,4.5,2c1.3,0.3,1.6,0.1,2.9,0.2c2.2,0.2-0.4-0.2,2,0.5l2-0.7
				c2,1.4,1.3,2.2,4.4,1.1c-0.9-1.9-0.8-1.3-1.1-3.2c-0.4-0.1-1.3-0.2-2.3-0.3l-0.6-3.2c3-0.9,4.7-0.4,6.9,0.3
				c0.1,0,0.2,0.1,0.4,0.1c0.6,0.2,1.5,0.4,2.3,0.5c3,0.8,6.1-1.3,8.4,2.8c-3.8,1.8-2.3,0.1-5.6,0.4c-1.6,0.3-2.4,0.4-3.5,1.3
				c0.3,1.5,1.1,1.3,1.1,1.3c1.3,0.6,0.4-0.6,1.9,0.6c1.3,1,0.1,1.4,2.7,2.7c1.7-0.1,5.9,0.4,7.6,0.8c2.3,0.6,2.9-0.1,6,0.5l1.6,0.4
				c0-0.1,0.3,0.1,0.4,0.2l0.1-0.6c6.2-2.2,6,1,12.3-3.6c4.2-3.1,8.4-0.1,13.1-4.4c0,0-0.1-1-3.4,0.1c-1.6,0.5-2.9,1.2-4.6,1.7
				c-3.3-2.3-1.6-1.2-7.3,0.2l-6.8-1.2c2.1-3.2,3.8-1.5,11.1-3.3c0.8-0.2,1.7-0.6,1.9-0.6l2.6-0.1c1.7,0.4,2.8,0.3,4.6-0.5
				c3.2-1.4,1.2-1.9,4.2-1.4l9.8-3.3c0.1-0.2,0.3-0.8,0.3-1.1c0-0.3,0-0.4,0.1-0.6c-1.2,0-1.9-0.1-2.9-0.6c0.1-1.8,0.3-1.3,0.9-3
				c-2.1-1.2-1.2,0.2-2.6-1.9c1.2-0.7,6.7-2.7,8.2-2.9c5.3-0.4,4.5-1,7-1.4c1.4-0.2,0.7-0.3,1.6,0.1c3.7-1.7,8.3-2.9,11.5-5
				c4.6-3.1-4.1-0.2,9.9-5.9c3.1-1.2,15.8-5.2,17.5-7.2c2.4-2.8-0.7-0.7,3.5-2.6c1.4,0.9,0.3-0.3,0.8,1.2l-0.5,2.4
				c-1.4,3-4.7,3.1-10.6,6c5.5,1.4,15-7.6,17.2-7.7c2.1,0.2,3.9,2.7,6.1,1.1c2-1.4,0.4-0.7,2.6-1.3c2.7-0.8-0.1,0.1,1.4-0.8
				c0.9-0.5-1.9-0.8,1.8-0.9c0.9-1.6,0.1-0.6,0.7-1.6c1-1.6,2.1-1.6,5.3-2.6c0.2-2,0.1-2.7,2.4-3.7c1.4-5,3.1-2.7,5.1-0.9
				c-0.3-3.7,3.4-11.1,7-13.6c0.5-0.4,3.8-4.6,4.9-6.2c1.2-1.7,2.9-4.8,5-6c2.4,0.9,0.2,1,2.7,1.4c3-2.2,1.3-2.4,4.4-5.2
				c-0.3-1.4,0.5-2.5,1.1-4.2c0.6-1.6,0.9-2.9,1.4-4.4c0.7-2.1,1.4-7.3,0.8-9.4c-0.1-2.6-0.3-0.3,0.4-2.7c0.2-0.6,0.4-1,0.6-1.8
				c0.8-2.2,0.4-2.2,0.8-4.2c1.3-7.9,2.2-4.6,1-9.1c-1.6-5.6,1.3-3.4-0.7-9.4c-1.4-4-1.3-6.6-3.1-9.9c-6.7-12.9-2.6-9.8-16.4-13.5
				l-8.1-2c-1.6-0.4-2.4-0.7-3.7-1.3c-0.3,0-5.9,1.9-6.6,4.9c1.2,1.7,4.8,3.1,6.5,3.3c2.1,0.3,1.6-0.4,4.1,0.3
				c2.9,0.9,7.3,2.4,8.6,5.8c2.4,6.3,4.3,10.4,3.6,17.6c-0.3,2.8-4.5,10.6-5.9,13.3c-1.2,2.3-2.3,4.6-3.9,6.1
				c-1.7,2.7-6.3,7.4-8.8,10l-10.5,9.1c-1.1,0.7-2.1,1.4-3.2,2.3c-4.6,3.8-3.3,2.2-6.3,4.3c-1.7,1.2-1.2,1.3-2.5,2.2
				c-3.3,2.2-3.9,0.8-6.7,4c-3.9,4.5-16.5,7.8-22.4,9.9c-12.9,4.6-5.1,2-15.4,3.6l-11.6,1.7c-3.2,0.3-1.4-0.1-1.7-1.5
				c-0.4-1.7,1.3-0.7-2.3-1.2c-0.3,0-6.4-2.6-9-1.2c-3.6,1.6-6.9-2.1-10.5,0l-2,1c-0.6,0-0.1-0.9-0.9,0.2c1.1-1.7,0.8-0.6,1.1-2.6
				l-7.3-3.2c-2.3-1-1.5-0.8-2.4-2.1c-1-0.2-4.9,0.3-8.6-2.8c-1.9-1.6-0.8-2.1-3.6-3.8c-1.4-0.8-2.6-0.9-3.5-2.1
				c-2.5,0-1.9-0.1-3.5-1.5c-1.9-1.7-0.9-0.1-2.8-1.9c-1.5-1.3-0.7-1.8-2.6-2.1c-6.2-1.1-0.2-1.2-8.2-5.6c-1.6-0.9-4.4-2.4-5.3-4.5
				l-0.4-0.4c-2.1-0.3-0.6,0.2-2.3-1c-0.7-0.5-0.9-0.8-1.8-1.5c-8.5-5.8-9.1-6.5-18.6-11.3l-11.9-5.6c-10-4.8-7.9-2.1-11.5-3.6
				c-5.2-2.2-3.7-3.3-9.3,0.5c-1.5,1-2.2,0.2-4.9,1.2c-0.8,0.3-2.3,1-3.1,1.2c-2.6,0.6-1.3,0.9-2.2-0.1c-2.8,1.2-3.8-0.8-6.6-0.9
				C204.4,142.6,204.1,142.9,204.1,144.4z"/>
			<path class="st3" d="M399,232.2c0.1-0.1,0.1-0.5,0.2-0.4c0.1,0.1,0.1-0.3,0.2-0.4c1.1-1.5,1.2-1.4,3.1-2.4
				c1.5-0.8,3.5-1.6,4.8-2.4c1.8-1.1,5-5.2,8.6-4.3c0.2,1.3,1.7,0.4-3,3.1c-2.5,1.4-2.1,1.8-4,3.2
				C406.1,230.7,401.7,232.4,399,232.2L399,232.2z M401.2,226.8c-5.6,2.1-3.9-0.9-8,1.6c-2.4,1.4-0.2,1-2.7,1.4
				c-2.1,0.4-2.1,0.1-4,1.5c0,0.1,0.1,0.2,0.2,0.3c0.4,0.9,1.2,0.8,1.7,1.1c1.8,0.9,0.4,0.2,2,2.3c1.9-0.7,2.4-1.4,3.5-2.1
				c11.1-7.3,10.5-2.1,7.7-9.1l-0.8,0.3C401.4,225.9,401.3,225.3,401.2,226.8L401.2,226.8z M416,214.3c-0.5,1.4,0.2,0.2-0.7,1.3
				c-0.2,0.2-0.8,0.8-1,0.9c-1.7,1.1-0.7,0.3-1.9,0.5c-4.6,0.6-1.3,2.4-4.6,5.8c-1.2,1.3-1.4,1.8-3.2,2.5c-4.3-3.1,0.9-4.1-15.8,3.5
				c-5.6,2.6-11.2,5.5-17.6,7.4c1.2,3.2,1.3,1,2.7,5.1c4.4-0.8,8.1-1.7,12.7-3.9c2.7-1.3,2.5-1.2,5.4-2.2c1.1-0.4,2.5-1,3.6-1.3
				c2.9-0.8,2.9,0.1,3,0.1c-0.6,0.9-0.1,0.4-1.2,1.2c-1.7,1.3-5,2.4-7,3.2c-3.1,1.2-6.6,2.5-9.7,3.8c-6.1,2.4-7.2,2.1-9.1,2.8
				c-3.4,1.2-3.1,3.9-7.4,1.4c-1.9,2.8-4.4,4.5-9.2,5.1c-1.3-1.3-0.8-1.6-2-2.7c-1.4-1.3-1,0.1-2.4-1.9c3.1-2.4,2.1-0.1,4.8-2.4
				c2.8-2.3,3.9-1.8,5-3.8c-2.8,1.5-7,2.2-9.6,2.9c-3.3,0.6-1.7-0.2-4.4,3.4c1.6-0.6,2.5-0.4,3.4,1.3l-2,1.6l-0.1,1
				c-0.1-0.1,0,0.3-0.1,0.4l2.3,1.4c-6.3,3.2-2.2-1.2-8.3,0.9c-3.6,1.2-5.4,3.2-8.3,2.5c1-3.9,4.7,0.1,5.8-4.4
				c-2.9,0.4-2.6-0.5-5.3,1.4c-1.8,0.9-7.2,2.6-8.3,2.7c-2.5,0.3-5.2,2.2-8.8,3.3c1.1,0.5,0,0.3,1.7,0.6c3.5,0.5,3.5-1,4.5-1.7
				c2.3-1.5,3.4,0.2,5.6,0.5c0.2-2.2-0.5-1.2,0.5-3.1c1.4,0.5,1.2,1.1,2.1,1.8c2.1,1.7,3.7-0.3,8.3-1.5c4.2-1.1,0.6-0.3,3,0.1
				c2.5,0.4,7-1.2,8.6-2.9c-0.1-2.1-0.4-2.2-2-2.7l2.3-0.9c2.4,4.2,2.9,2.7,7.5,1.7c3.8-0.9,0.4,1.4,9-1.9c3.3-1.3,7-2.8,9.6-3.9
				c3.5-1.5,0.9,0.5,3.3-1.7c2.4-2.2,17-6,22.5-10.3c1.5-1.2,1.3-1.5,3.7-2.6c1.7-0.8,3.1-1.2,4.5-2.1l5.8-5.2
				c-1.2-5.6-4.9,0.2-8.8,0.1c1.9-1.3,3-2.8,3.7-4.1c2.7,2,2.7,1,6.8-1.2c0.2-0.9,0-0.5,0-1.6c0-0.2,0-0.7,0-0.9c0-0.1,0-0.2,0-0.5
				c-0.1-0.2,0-0.3,0-0.5c1.6-1.4,2.7-2.1,3.3-4.4l-1.5,0C419.2,213.5,420.3,212.9,416,214.3z"/>
			<path class="st3" d="M389.5,220.4c-2.6,0.8-8.2,3-10.1,4.1c-3.1,1.8-5.6,2.3-9.1,3.5c2.5,0,2.8-3.1,4.4-4.3
				c1.8-1.3,21.3-9.2,24.2-8.6c-4.2,2.6-7.5,2.6-9.1,4.6L389.5,220.4L389.5,220.4z M359.4,231.3c-4.8,2.1-9.8,1.9-11.9,3.7
				c-1.1,1-2.3,2.7,0.6,2.2c0.7-0.1,0.7-0.2,1.4-0.4c0.8-0.3,2.2-1,3-1.4c4.1-1.9,5.5-1.8,10.9-4.5c1.8-0.9,3.8-1.7,5.6-1.4
				c2.6-1.3,5.9-1.9,8.7-3.1c3.8-1.6,5-2.5,8.4-2.1c-1.8,3.5-2.2,0.2-2.6,5.6l-15.1,7c-4.5,1.8-12.1,4.6-16.4,5.1
				c1.2-1.5,2.9-1.6,1.6-3.6c-4.2-0.2-4.3,2-6.8,4.1l-9.8,3.3c1.9,0.6,3.9-0.6,7.8-1.6c3.9-1,3.9-3.2,6-0.8c2.6-0.7,6.8-1.5,9.6-2.9
				l10.7-4.4c6.4-1.9,12-4.8,17.6-7.4c16.7-7.6,11.5-6.7,15.8-3.5c1.8-0.7,2-1.2,3.2-2.5c3.3-3.4,0-5.2,4.6-5.8
				c1.1-0.1,0.2,0.6,1.9-0.5c0.2-0.1,0.8-0.7,1-0.9c0.9-1.2,0.3,0.1,0.7-1.3c-2.7,0.8-4.6,0.3-6.5,2.3c-1.9,2-0.7,2.4-1.6,4.8
				c-3.1,2-2.8,0.4-5.6,0.8c-3,0.4-3.2,2-6.8,1.5c0.3-1.7-0.1-1.3,2.1-2.4c1-0.5,2-0.7,3-1.1c5.9-2.3,4-2.8,3.9-3.4
				c-3.4-0.2-12.9,6.7-15,3.5c2.3-1,9.9-3.9,11.4-6c0.9-1.3,1.2-2.3,1-3.9c-4.2,1.9-1.2-0.2-3.5,2.6c-1.7,2.1-14.5,6-17.5,7.2
				c-14,5.6-5.3,2.7-9.9,5.9C367.8,228.4,363.1,229.6,359.4,231.3z"/>
			<path class="st2" d="M353.6,238.4c1.3,2-0.4,2.1-1.6,3.6c4.3-0.5,11.9-3.3,16.4-5.1l15.1-7c0.3-5.4,0.8-2.1,2.6-5.6
				c-3.4-0.4-4.6,0.5-8.4,2.1c-2.8,1.2-6.1,1.9-8.7,3.1c-6.4,2.5-14.2,5.4-19.9,8.4l1,0.1C353.6,238.2,351.8,237.4,353.6,238.4z"/>
			<path class="st1" d="M141.7,174.4c1.2,1.9,3,2.7,5.2,2.9c2.1,0.2,1,0,2.8,0.4c1.5,0.3,1.1,0.2,2.8,0.3c1.1,0.1,4.5,0.5,5.5,0.7
				c2.3,0.6,2.8,1.2,3.9,4.2c1.4,3.9,1.7,2.9,3.7,5.1c2.3,2.6,5.5,6.4,8.1,7.5c1.8,0.8,2.5,1.4,4.8,1c6.2-2.1,8.7-2.2,12-6.5
				c1.2-1.5,2.5-3,3-4.5c0.3-0.9,0.2-1.5,0.6-2.7l2.6-7.6l-0.7-12.2c-0.1-2-0.1-4.2-0.1-6.1c-0.1-0.1-1.2-1.2-1.5-1.5
				c-0.3-0.2-1.3-1-1.5-1.1c-1.6-1.1-2.2-1.4-4.7-0.6c1.3,1.1,1.2,1.2,4.1,1.7c4.9,10.4,0.8,8.1,2.3,13c1.2,4.3,1.3,2.9,0.5,6.3
				c-0.6,2.5-0.3,2.7-1.8,6c-0.1,0.1-0.3,0.5-0.4,0.7c-0.5,1.1-0.1-0.4-0.3,1c-0.5,3.1,1.1,0.7-1.9,5.1l-1.9,2.2
				c-1.8,1.9-5.8,6.1-10.5,4.9c-5.8-1.5-2.2,1.1-5.1-1.4l-7.8-8.3c-1-2.1-1.2-4.5-2.6-5.7l-2.2-1.4c-2.4-1.5-1.2-0.3-4.8-1.2
				c-3.5-0.8-2.4,0.5-6.1-0.5c-1-0.3-1.5-0.4-2.5-0.7L141.7,174.4z"/>
			<path class="st4" d="M186.9,197.6c0.5,5.1-7.6,7.1,0.8,20.3c2.7,4.3,10.5,9.2,14.4,11.8l12.6,8.4l12.9,5.9
				c0.6,0.2,1.4,0.5,2.1,0.8c1.9,0.7,2.6,1.2,4.9,0.1l-4.7-1.4c-8.8-2.1-15.5-7.2-23.2-12.1l-8.8-6c-4.1-3.3-9.3-6.7-11.4-12.2
				c-2.8-7.4-1.3-6.7,1.6-14.3c0.6-1.6,0.2-0.8,1.4-2.3c2.1-2.8,1.9-1.8,4.4-3.9c2.7-2.4-0.3-2,4.9-4l-2.8,0c-2.6,1-1.1,2.1-3.8,4
				c-2.3,1.6-1.5,0.3-2.9,2.4C188.2,196.5,188.8,196.1,186.9,197.6z"/>
			<path class="st4" d="M389.5,220.4c2.1,3.3,11.7-3.7,15-3.5c0.1,0.6,1.9,1-3.9,3.4c-1,0.4-2,0.6-3,1.1c-2.2,1.1-1.8,0.7-2.1,2.4
				c3.6,0.5,3.7-1.1,6.8-1.5c2.8-0.4,2.5,1.2,5.6-0.8c1-2.4-0.3-2.8,1.6-4.8c1.9-2,3.8-1.5,6.5-2.3c4.3-1.4,3.2-0.7,4.6-3.9
				c-3.7,0.1-0.9,0.4-1.8,0.9c-1.5,0.9,1.2,0-1.4,0.8c-2.2,0.6-0.7-0.1-2.6,1.3c-2.2,1.6-4-0.9-6.1-1.1c-2.2,0.1-11.7,9.1-17.2,7.7
				c6-2.9,9.2-3,10.6-6l0.5-2.4c-0.4-1.5,0.6-0.3-0.8-1.2c0.2,1.6-0.1,2.5-1,3.9C399.3,216.5,391.8,219.4,389.5,220.4z"/>
			<path class="st4" d="M234,205.4l1.4,0.7c0-0.1,0.2,0.1,0.3,0.1l0.6,1.4l-0.2-0.5c2.3,0.6,2.3,0.6,3.6,2.3
				c1.2,1.5,0.3,0.6,1.3,1.3c1.1,0.8,0.5-0.4,1.3,1.4c-2.2,0.7-0.7-0.1-3.3-0.1c1.6,1.4,1,0.8,3.2,1.4c1.5,0.4,1.2,0.6,3.2,1
				c0.8,0.2,5.4,0,6.9-0.3l-0.8-0.3c-4.2-1.4-5.4-1.1-5.8-5.3l2.6-0.8c-1.3-0.8,1-0.3-3.1-0.6c-3.8-0.3,0.8-1.2-5.4-1.3
				c-1.4-4.9-1.6-4.2-4.8-6.8l-2.6,1.5c1.9,1.1,2,0.8,2.9,3.9c-0.1,0.1-0.2,0.1-0.2,0.3L234,205.4z"/>
			<path class="st2" d="M215.2,188.9c0.7,1.8,0.5,2.3,1.7,3.4c-4.1,1.8-3.8,0.7-4.4,4.2c-0.4-0.6-0.6-0.8-0.9-1.2
				c-1.8-2.6-1-5.4-5.3-2.6c-1.5-1.7-0.9-1.5-3.6-2.7c-0.1-0.1-0.2-0.1-0.4-0.2c-1.7-0.7-0.6-0.6-2.3-0.3c1.7,2.1,4.5,3.5,6.5,4.5
				l6.7,4.2c0.7-3.6,1.9-3.9,3.9-4.6l0.8,1.1c1.9-1.1,1,0.5,1.4-1.3c-2.4-4.6-2.9-0.6-2.8-7.5c-1.1-1-1.6-0.5-2.3-1.5
				c-1.1-1.6-0.1-1.9,0.4-2.6c3.9,1.5-0.5,3.8,4.3,1.7l-1.4-2.9c-1.8-2.6-1.3,0.3-2.8-4.7c-0.4-0.2-1.4-0.1-1.5-0.1
				c3.6,7.2-1,3.8,0,7.9c0.9,3.3,0.6,0.7,1.7,2.5C215.9,187.9,215.5,188.2,215.2,188.9z"/>
			<path class="st4" d="M429,202.4c-2.3,1-2.2,1.6-2.4,3.7c-3.2,1.1-4.3,1-5.3,2.6c-0.6,1.1,0.1,0.1-0.7,1.6l1.5,0
				c0.2-1.3,0.9,1.1,0.1-1.3c4.7-2.1,3.2,1.3,6.5,0.6c3.8-0.8,1.1-3,0-5.9c3.1-1.1,2.4,0.7,5.8-0.4c2.5-0.8,2.4-1.8,3.5-3.1
				c0.1-0.2,0.3-0.7,0.4-0.9c0.1-0.1,0.2-0.3,0.2-0.5c0-0.3,0.1-0.4,0.2-0.6c-6.7,4.4-0.9,3.4-5.7,4.4l-1.5-2.4
				C429.6,201.8,432.1,200.9,429,202.4z"/>
			<path class="st3" d="M438.8,198.3c-0.1,0.2-0.2,0.3-0.2,0.6c0,0.3-0.1,0.4-0.2,0.5c-0.1,0.1-0.3,0.7-0.4,0.9
				c3.1-2.1,0.7-1.2,4.9-5.3c1.1-1.1,0.8-1,1.8-2.4c1.5-1.9,1.2-0.4,1.6-2.9c-3.9-1-2.7,0.9-5.3-0.2l-0.6,0.5
				c-1.9,2-3.2,3.2-3.8,6.3C437.7,197,438.3,196.9,438.8,198.3z"/>
			<path class="st1" d="M166.9,164.2l0.2,0.8l3.2-1c-0.5-3.6-3.2-4.2-2.8-7.2c0.2-2,3.2-4.4,5-5.6c2.1-1.5,4-2.4,6.4-1.7
				c0.7,0.2,2.1,0.7,2.8,1c1.8,0.8,1.4,1.1,3.5,1.5l-1.4-2.5c-2.1-0.4-2.6-0.9-4.3-1.4c-5.6-1.5-5.9,1-9,2.9
				c-8.2,5-2.1,10.5-1.7,12.3L166.9,164.2z"/>
			<path class="st4" d="M257.8,215.4c0.8,0.5-0.7,1.2,1.9,0.5c0.3-0.1,1.7-1,2.6-1.5c1.7,1.2,1.3,1.7,3.8,0.2l0.3-2.7l-5.2-1.4
				c-1.4-0.4-3.8-1.4-4.9,0.7c-0.2-0.1-0.4-0.3-0.5-0.2c0,0-3.3-1.9-6.1-2.1l1.1,0.6c2.2,1,5.9,2.3,7.3,3.8c2.5-1.7,0.4-1.3,2.7-2
				c0.5,1.7-0.1,2.6-1.3,4L257.8,215.4z"/>
			<path class="st1" d="M173.6,169.9l6.2-2.4c1.1,3.2,0.9,2-1.3,5.7c-0.1,0.1-0.2,0.3-0.2,0.4c-0.9-0.4,0.7-0.7-2.1,0.1
				C175.4,172.5,174.3,170.8,173.6,169.9L173.6,169.9z M171.7,171.3c0.4,1.3,1.3,0.9,2.3,1.7c2.2,1.7,2.9,6,7.2-1.3l0.8-2
				c-1.4-4-1.7-3.6-5.1-2.3C174.4,168.3,170.8,168.7,171.7,171.3z"/>
			<path class="st5" d="M338,194l-0.9-0.4c-4.1-1.9-1.4-0.5-6.5-1.4l-6.9-1.8c-2.3-1.1-5.1-2.9-7.7-3c0.8,1.3,0.1,1.1,2.4,2.1
				l7.3,3.2c-0.4,2,0,0.8-1.1,2.6c0.8-1.1,0.3-0.2,0.9-0.2l2-1C331.1,191.9,334.4,195.6,338,194z"/>
			<path class="st4" d="M256.9,202c-0.6-2-0.6-1-0.1-2.1c-1.6-0.8-0.1-0.5-2-0.4c-2.2,0.2-0.6,0.4-0.6,0.5c0.3-2.1,0.8,0.3-0.2-3.1
				c-2.4-0.4-2.4-0.4-4-2.8c3.4-1.8,1.6-1.7,3.4,0.8l1.8-0.4l-0.8-0.5c-2.1-1.3-3.5-1.6-5.7-2.1l-0.8,2.4c-1.3,3.8-0.3,2.4,4.8,5.5
				L256.9,202z"/>
			<path class="st6" d="M250.4,210.4c2.5,0.8,3,0.8,4,2c-1.1,1.2,1.7,0.6-1.5,1c-0.1,0-1-0.2-1.2-0.3c-2-0.7-4.9-1.8-4.6-4.3
				C251,209.1,246.7,209.2,250.4,210.4L250.4,210.4z M252.6,214.2c2,0.2,1.9,0.9,4.7,0.2l0.5,0.9l1.8,0c1.2-1.4,1.8-2.4,1.3-4
				c-2.3,0.8-0.2,0.3-2.7,2c-1.4-1.5-5.1-2.8-7.3-3.8l-1.1-0.6l-1.1-1.1l-2.6,0.8c0.4,4.2,1.6,3.9,5.8,5.3L252.6,214.2z"/>
			<path class="st4" d="M300.3,178.7c-1.4-2.7-0.5-0.8-2.9-2.7c-1-0.7-1.6-1.3-2.7-2.2l-16.8-10.7c0.9,2.1,3.7,3.6,5.3,4.5
				c7.9,4.5,1.9,4.6,8.2,5.6c1.9,0.3,1.2,0.8,2.6,2.1c1.9,1.7,0.8,0.2,2.8,1.9C298.4,178.6,297.7,178.7,300.3,178.7z"/>
			<path class="st7" d="M429,202.4c3.1-1.5,0.6-0.7,2.6-2.2l1.5,2.4c4.8-0.9-1,0,5.7-4.4c-0.5-1.5-1-1.4-2.2-1.9
				c0.6-3.1,1.9-4.3,3.8-6.3l0.6-0.5c0-0.2,0-0.4,0-0.5c0-0.1,0.1-0.3,0-0.6c-0.1-0.3,0-0.4,0.1-0.6c-3.6,2.5-7.3,9.9-7,13.6
				C432.1,199.7,430.4,197.4,429,202.4z"/>
			<path class="st1" d="M167.1,165c0,0,0.8,1.6,3.2,1.1c2.2-0.4,2.3-0.9,2-2.5c-0.7-4.6-6.9-5-2.1-9c2.6-2.2,2.2-0.8,2.3-3.4
				c-1.8,1.2-4.8,3.6-5,5.6c-0.4,3,2.4,3.6,2.8,7.2L167.1,165z"/>
			<path class="st1" d="M172,181.5c1.1-0.4,3.5-6.5-2.1-4.4c-1.5,0.5-1.7,1.8-1.9,2.9C169,180.9,170.4,182.1,172,181.5z"/>
			<path class="st4" d="M247.8,187.1c2.4,2,1.9,0.8,4.2,2.2l0.9-0.2c-0.5-1.8-1.2-1.5-2.2-2.5c-2.2-2.2-1-2.3-4.5-1.2
				C247.5,187.2,246.2,186,247.8,187.1z"/>
			<path class="st4" d="M202.6,186c0.7,2,1,2.1,2.4,2.5C208.5,183.8,201.4,182.3,202.6,186z"/>
			<path class="st7" d="M290.4,225.2c-0.2,3.6,2.9,2.1,4.5,0.6c0,0,0-1.7-3.2-1.3l-1,0.4C290.6,225,290.5,225.1,290.4,225.2z"/>
			<path class="st8" d="M259.6,193c1.5,0.6,0.4,0.5,2.2,0.8c0.2-1.3,1.1,1.1-0.1-1.8c-0.4-1-1.3-1.9-2.6-1.7c-2.3,0.2-1.4,0.6-1.7,1
				l1.1,0.7C259.6,192.8,258.6,191.5,259.6,193z"/>
			<path class="st9" d="M327.5,218.2c-1-1.8,0.4-0.9-1.8-1.5c-0.9-0.3-1.5-0.4-2.8-0.2C323.2,218.8,325.1,220.6,327.5,218.2z"/>
			<path class="st10" d="M330.2,218.9c0.8,0.8-0.1,1.3,2.5,0.9c2-0.4,1.5-0.8,1.4-2.5c-0.7,0-0.9-0.2-1.9,0.1
				c-0.2,0.1-0.8,0.3-1,0.4C330.3,218.4,330.7,218.3,330.2,218.9z"/>
			<path class="st3" d="M448.2,184.1l0.4,1c1.8-0.4,2.9-3,3.1-4.8C447.8,182.6,453.3,181.4,448.2,184.1z"/>
			<path class="st11" d="M370.1,142.5c0,0.3-0.2,0.5-0.6,0.7c-0.3,0.2-0.7,0.3-1.1,0.4c-0.5,0.1-0.9,0-1.3-0.1
				c-0.4-0.1-0.7-0.4-0.7-0.7c-0.4-1.7-1.3-3.3-2.7-4.7c-1.4-1.4-3.1-2.6-5.1-3.5c-2-0.9-4.1-1.6-6.5-2c-2.3-0.4-4.6-0.5-6.8-0.2
				c-1.9,0.2-3.7,0.7-5.6,1.3c-1.8,0.6-3.5,1.6-5.1,2.8c-1.5,1.2-2.8,2.7-3.9,4.5c-1.1,1.8-1.8,4-2.1,6.6c-0.3,2.1-0.2,4.3,0.1,6.5
				c0.3,2.2,0.8,4.5,1.4,6.7c0.6,2.2,1.3,4.4,2,6.5c0.8,2.1,1.5,4.1,2.1,6c0.8,2.4,1.6,4.8,2.5,7.2c0.9,2.5,1.7,5,2.5,7.5
				c0.8,2.5,1.4,5.1,1.9,7.7c0.5,2.6,0.7,5.3,0.8,8c3.2-1.9,6.5-3.8,9.8-5.9c3.3-2,6.8-4.4,10.5-7.1c0.4-0.3,1-0.5,1.6-0.6
				c0.5-0.1,0.8,0,0.8,0.3c0,0.2-0.3,0.5-0.9,0.9c-4.5,3.2-8.5,5.9-11.9,8.1c-3.4,2.2-6.8,4.3-10,6.2c0,0.3-0.1,0.6-0.1,0.9
				c0,0.3,0,0.6-0.1,0.9c-0.3,2.7-1.2,5.4-2.6,8.3c-1.4,2.9-3.3,5.6-5.4,8c-2.2,2.5-4.6,4.5-7.3,6.2c-2.7,1.7-5.4,2.7-8.2,3
				c-0.9,0.1-1.7,0.1-2.5-0.1c-0.8-0.1-1.5-0.4-2.1-0.9c-0.6-0.4-1.1-1.1-1.4-1.8c-0.3-0.8-0.4-1.8-0.2-3.1c0.2-1.6,0.8-3,1.8-4.4
				c1-1.4,2.3-2.7,3.7-3.9c1.4-1.2,2.9-2.3,4.5-3.3c1.6-1,2.9-1.9,4.1-2.6c2-1.3,4-2.4,5.9-3.6c1.9-1.1,3.8-2.2,5.7-3.3
				c0-3.6-0.4-7.3-1.3-11.1c-0.9-3.7-2-7.5-3.2-11.3c-1.3-3.8-2.6-7.5-4-11.3c-1.4-3.8-2.5-7.5-3.5-11.2c-0.5-1.9-0.9-3.8-1.2-5.9
				c-0.3-2.1-0.4-4.3-0.1-6.4c0.4-3,1.3-5.6,2.8-7.8c1.5-2.2,3.3-4.1,5.4-5.6c2.1-1.5,4.4-2.7,6.8-3.6c2.4-0.9,4.8-1.4,7-1.7
				c2.6-0.3,5.2-0.3,7.8,0c2.6,0.3,5,0.9,7.2,1.8c2.2,0.9,4.1,2.3,5.7,4c1.6,1.7,2.7,3.8,3.2,6.3L370.1,142.5L370.1,142.5z
				 M329.5,224.5c2.4-2.6,4.2-5.1,5.4-7.7c1.2-2.6,2-5.1,2.3-7.7l0.1-0.8c-1.4,0.8-2.9,1.7-4.4,2.7c-1.5,1-3.1,1.9-4.7,3
				c-1.1,0.7-2.3,1.4-3.6,2.2c-1.3,0.8-2.6,1.7-3.9,2.7c-1.2,1-2.3,2.1-3.2,3.2c-0.9,1.2-1.4,2.4-1.6,3.8c-0.2,1.5,0.2,2.7,1,3.5
				c0.9,0.8,1.9,1.2,3.2,1c0.8-0.1,1.6-0.3,2.5-0.7c0.9-0.4,1.8-0.9,2.6-1.5c0.9-0.6,1.6-1.2,2.4-1.8
				C328.4,225.7,329,225.1,329.5,224.5L329.5,224.5z M405.8,189.2c-1,1-2.4,2.3-4,3.7c-1.6,1.4-3.3,2.8-5.1,4.2
				c-1.8,1.3-3.6,2.5-5.3,3.5c-1.8,1-3.4,1.6-4.8,1.8c-1.6,0.2-2.8-0.3-3.7-1.5c-0.9-1.2-1.1-3.4-0.7-6.7c0.2-1.5,0.6-3.2,1.3-5.1
				c0.7-1.9,1.4-3.7,2.2-5.5c0.8-1.8,1.5-3.4,2.2-4.8c0.7-1.4,1.1-2.4,1.3-3c-0.3-0.3-0.7-0.5-1.4-0.4c-1,0.1-1.8,0.6-2.4,1.4
				c-0.6,0.8-1,1.5-1.2,2c-0.9-1.3-2.3-1.9-4.2-1.6c-2.1,0.2-4.4,1.3-7,3c-2.6,1.8-5.1,3.9-7.5,6.4c-2.4,2.5-4.5,5.1-6.2,7.8
				c-1.7,2.7-2.7,5.1-3,7.2c-0.2,1.6,0.1,2.8,0.8,3.6c0.7,0.7,1.7,1.1,2.8,0.9c1.4-0.2,3.1-0.8,5-1.9c1.9-1.1,3.8-2.4,5.6-3.7
				c1.8-1.4,3.4-2.6,4.8-3.9c1.4-1.2,2.3-2.1,2.9-2.5c-0.2,1.5-0.3,2.9-0.3,4.3c0,1.4,0.2,2.7,0.6,3.8c0.4,1.1,1,1.9,1.9,2.5
				c0.9,0.6,2.1,0.8,3.7,0.6c1.8-0.2,3.9-0.9,6.2-2.1c2.3-1.2,4.6-2.6,6.9-4.2c2.3-1.6,4.5-3.3,6.6-5.1c2.1-1.8,3.8-3.3,5.1-4.6
				c0.4-0.4,0.6-0.7,0.6-1c0-0.4-0.3-0.5-0.9-0.4c-0.4,0-0.8,0.2-1.3,0.3C406.5,188.6,406.1,188.8,405.8,189.2L405.8,189.2z
				 M369.6,197.8c0.8-0.6,1.8-1.5,3-2.6c1.2-1.1,2.4-2.3,3.5-3.7c1.2-1.4,2.2-2.8,3.2-4.4c1-1.5,1.7-3,2-4.5
				c-0.5-1.8-1.6-2.7-3.3-2.5c-1.5,0.2-3.2,1.1-5.2,2.7c-1.9,1.6-3.7,3.5-5.4,5.7c-1.7,2.1-3.1,4.3-4.3,6.5
				c-1.2,2.2-1.9,3.9-2.1,5.2c-0.2,1.3,0.3,1.8,1.4,1.7c0.6-0.1,1.5-0.4,2.7-1.1C366.3,200.2,367.8,199.2,369.6,197.8L369.6,197.8z
				 M406.3,188.8c0.5-2.6,1.3-5.5,2.3-8.7c1-3.2,2-6.3,3.2-9.4c1.1-3.1,2.2-6,3.3-8.8c1.1-2.7,2-5,2.9-6.7c1.8-4,3.8-8.1,5.9-12.4
				c2.1-4.3,4.5-8.3,7-12c0.7-1,1.4-2,2.2-3.1c0.8-1.1,1.6-2.1,2.5-2.9c0.9-0.9,1.8-1.6,2.9-2.3c1-0.6,2.2-1,3.4-1.2
				c1.4-0.2,2.3,0.2,2.8,1.2c0.4,1,0.6,2.2,0.4,3.8c-0.2,1.5-0.6,3.1-1.2,5c-0.6,1.9-1.3,3.7-2,5.7c-0.7,1.9-1.5,3.7-2.3,5.5
				c-0.8,1.8-1.6,3.3-2.2,4.6c-1.6,3-3.3,6.1-5.2,9.3c-1.9,3.2-4,6.5-6.2,9.6c-2.2,3.2-4.5,6.3-6.9,9.3c-2.4,3-4.9,5.8-7.4,8.4
				c-0.1,0.6-0.2,1.2-0.4,1.9c-0.1,0.7-0.2,1.4-0.3,2c-0.2,2-0.2,3.7,0,5c0.2,1.3,0.6,2.4,1.1,3.2c0.5,0.8,1.1,1.3,1.8,1.6
				c0.7,0.3,1.5,0.4,2.3,0.3c1.2-0.1,2.6-0.6,4-1.4c1.4-0.8,2.9-1.7,4.3-2.7c1.4-1,2.9-2.2,4.3-3.4c1.4-1.2,2.7-2.3,3.8-3.3
				c1.2-1,2.2-1.9,3-2.6c0.9-0.7,1.5-1.1,1.9-1.1c0.3,0,0.4,0.1,0.4,0.3c0,0.4-0.5,1-1.3,2c-0.8,1-1.9,2.1-3.1,3.3
				c-1.3,1.2-2.7,2.5-4.4,3.9c-1.6,1.4-3.3,2.6-5.1,3.8c-1.8,1.2-3.5,2.2-5.2,3c-1.7,0.8-3.3,1.3-4.7,1.5c-3.1,0.4-5.3-0.4-6.6-2.3
				c-1.3-1.9-1.8-4.7-1.4-8.2c0-0.3,0.1-0.6,0.1-0.9C406.2,189.4,406.2,189.2,406.3,188.8L406.3,188.8z M419.6,159
				c-0.5,1.2-1,2.6-1.6,4.3c-0.6,1.7-1.2,3.4-1.8,5.2c-0.6,1.8-1.2,3.6-1.8,5.4c-0.6,1.8-1.1,3.4-1.6,4.8c2-2.3,3.9-4.7,5.7-7.3
				c1.9-2.6,3.6-5.3,5.4-8.1c1.7-2.8,3.4-5.5,4.9-8.2c1.6-2.7,3-5.3,4.4-7.7c1.3-2.5,2.8-5.3,4.3-8.5c1.5-3.2,2.8-6.3,3.8-9.3
				c0.3-0.7,0.4-1.5,0.5-2.1c0.1-1,0-1.8-0.2-2.4c-0.3-0.6-0.7-0.9-1.4-0.8c-0.4,0-0.9,0.3-1.4,0.8c-0.5,0.5-1.1,1-1.7,1.6
				c-0.6,0.6-1.2,1.3-1.7,2.1c-0.5,0.7-1,1.4-1.4,2.1c-2.9,4.6-5.4,9.2-7.8,13.9C423.8,149.4,421.7,154.1,419.6,159L419.6,159z
				 M455.4,168.3c-0.9-1-2-1.6-3.2-1.9c-1.2-0.3-2.4-0.4-3.6-0.2c-1.9,0.2-3.5,0.7-5,1.4c-1.5,0.7-2.7,1.6-3.7,2.6
				c-1,1-1.8,2.1-2.3,3.1c-0.6,1.1-0.9,2.1-1,3c-0.2,1.5-0.1,2.9,0.3,4.4c0.4,1.5,0.9,3,1.5,4.5c0.6,1.5,1.2,3.1,1.8,4.7
				c0.6,1.6,1.1,3.1,1.4,4.7c-1.1,0.7-2.3,1.5-3.6,2.4c-1.3,1-2.5,2-3.6,3.2c-1.1,1.1-2,2.3-2.8,3.6c-0.8,1.2-1.2,2.4-1.3,3.7
				c-0.1,1,0.2,2,0.9,2.8c0.7,0.9,2.1,1.2,4.2,0.9c1.4-0.2,2.7-0.7,4-1.7c1.2-1,2.3-2.1,3.3-3.4c0.9-1.3,1.7-2.7,2.3-4.1
				c0.6-1.4,0.9-2.8,1.1-4c0.1-1.2,0.2-2.5,0-3.9c3.1-1.9,6.3-3.7,9.5-5.3c3.2-1.6,6.4-3.4,9.4-5.6c0.6-0.4,1-0.8,1-1
				c0-0.2-0.1-0.3-0.3-0.4c-0.2-0.1-0.4-0.1-0.7,0c-0.5,0.1-1,0.2-1.4,0.4c-1.9,1.2-4.6,2.7-7.8,4.3c-3.3,1.6-6.6,3.5-10.1,5.5
				c-0.3-1.4-0.7-2.7-1.2-4c-0.5-1.3-1.1-2.5-1.7-3.8c-0.6-1.2-1.1-2.5-1.6-3.8c-0.5-1.3-0.8-2.6-1-4c-0.1-0.4-0.2-0.9-0.1-1.4
				c0.2-1.7,1.1-3.2,2.7-4.4c1.6-1.2,3.4-2,5.2-2.2c1.1-0.1,2-0.1,2.9,0.1c0.8,0.2,1.6,0.4,2.3,0.7c0.7,0.3,1.2,0.5,1.6,0.8
				c0.4,0.2,0.7,0.4,0.9,0.3c0.1-0.1,0.1-0.1,0.1-0.2c0-0.3,0-0.7-0.2-1.1C455.6,168.7,455.5,168.4,455.4,168.3L455.4,168.3z
				 M439.3,206.3c0.9-0.9,1.5-1.9,1.9-3c0.4-1,0.7-2.1,0.8-3.1c0.1-0.5,0.1-1.1,0.1-1.7c0-0.6,0-1.1-0.1-1.6c-0.6,0.4-1.3,1-2.3,1.8
				c-1,0.8-1.9,1.6-2.8,2.5c-0.9,0.9-1.8,1.8-2.4,2.8c-0.7,1-1.1,1.9-1.2,2.7c-0.1,0.7,0.1,1.3,0.6,1.6c0.5,0.3,1,0.5,1.7,0.4
				c0.6-0.1,1.3-0.3,2-0.7C438.1,207.6,438.8,207,439.3,206.3L439.3,206.3z M511.2,176.6c0.3-0.3,0.7-0.6,1.2-0.8
				c0.5-0.2,0.9-0.3,1.3-0.3c0.6-0.1,0.9,0.1,0.9,0.4c0,0.2-0.2,0.6-0.6,1c-1.3,1.3-3,2.8-5.1,4.6c-2.1,1.8-4.3,3.5-6.6,5.1
				c-2.3,1.6-4.6,3-6.9,4.2c-2.3,1.2-4.3,1.9-6.2,2.1c-1.6,0.2-2.8,0-3.7-0.6c-0.9-0.6-1.5-1.4-1.9-2.5c-0.4-1.1-0.6-2.3-0.6-3.8
				c0-1.4,0.1-2.9,0.3-4.3c-0.5,0.4-1.5,1.2-2.9,2.5c-1.4,1.2-3,2.5-4.8,3.9c-1.8,1.4-3.7,2.6-5.6,3.7c-1.9,1.1-3.6,1.8-5,1.9
				c-1.2,0.1-2.1-0.2-2.8-0.9c-0.7-0.7-1-1.9-0.8-3.6c0.3-2.1,1.3-4.5,3-7.2c1.7-2.7,3.8-5.3,6.2-7.8c2.4-2.5,4.9-4.6,7.5-6.4
				c2.6-1.8,5-2.8,7-3c1.9-0.2,3.4,0.3,4.2,1.6c0.2-0.5,0.6-1.2,1.2-2c0.6-0.8,1.4-1.3,2.4-1.4c0.7-0.1,1.2,0,1.4,0.4
				c-0.2,0.6-0.6,1.6-1.3,3c-0.7,1.4-1.4,3-2.2,4.8c-0.8,1.8-1.5,3.6-2.2,5.5c-0.7,1.9-1.1,3.6-1.3,5.1c-0.4,3.3-0.1,5.5,0.7,6.7
				c0.9,1.2,2.1,1.7,3.7,1.5c1.4-0.2,3-0.8,4.8-1.8c1.8-1,3.6-2.2,5.3-3.5c1.8-1.3,3.5-2.7,5.1-4.2
				C508.8,178.9,510.2,177.6,511.2,176.6L511.2,176.6z M475.1,185.2c0.8-0.6,1.8-1.5,3-2.6c1.2-1.1,2.4-2.3,3.5-3.7
				c1.2-1.4,2.2-2.8,3.2-4.4c1-1.5,1.7-3,2-4.5c-0.5-1.8-1.6-2.7-3.3-2.5c-1.5,0.2-3.2,1.1-5.2,2.7c-1.9,1.6-3.7,3.5-5.4,5.7
				c-1.7,2.1-3.1,4.3-4.3,6.5c-1.2,2.2-1.9,3.9-2.1,5.2c-0.2,1.3,0.3,1.8,1.4,1.7c0.6-0.1,1.5-0.4,2.7-1.1
				C471.8,187.7,473.3,186.6,475.1,185.2z"/>
			<g>
				<g>
					<path class="st12" d="M161.8,76.4c0.1,4.6,1.2,6.2,3,7.2c-2.2,0.5-2.8,1.6-2.8,2.3c0,0.5,0.4,1.7,2.7,2.4
						c-1.8,1.2-2.6,3.1-2.5,7.6l0.5,22c0.1,4.4,2.1,4.8,5.1,4.8c3.2-0.1,4.8-0.7,4.7-5l-0.5-21.9c-0.1-4.7-1.8-6.8-3.4-7.5
						c1.8-0.6,2.5-1.5,2.5-2.2c0-0.8-0.5-1.6-2.1-2.4c1.1-1.2,2.6-3,2.5-7.5l-0.5-20.7c-0.1-4.1-0.8-6-5-5.9c-3.9,0.1-5,2-4.9,6.1
						L161.8,76.4L161.8,76.4z M148.7,96.7c-0.1-4.9-2.2-7.1-3.4-8.1c1.3-0.8,1.8-1.6,1.8-2.3c0-0.7-0.5-1.5-1.9-2.5
						c1.8-1.5,3.1-3.2,3-8.5l-0.5-22.2c0-1.7-0.2-2-1.1-1.9c-0.8,0-1,0.5-0.9,2.4l0.1,2.4l-1.5,0l-1.7-8.8c2.3-0.2,4.8-1.4,5.3-2.3
						c1.5,0.6,4.7,1.1,6.4,1c2.3-0.1,5-0.8,6.7-1.1c1.8-0.3,3.7-0.3,6.7-0.4c10.5-0.3,17.7,4,17.8,10.2l0.5,19.3
						c0.1,5.9,1.5,7.6,2.7,8.5c-2,0.8-2.1,1.9-2.1,2.6c0,0.7,0.4,1.7,2.2,2.4c-1.3,0.9-2.4,3.2-2.3,9.5l0.4,17.5
						c0.3,10.9-9.9,13.2-16.3,13.4c-3.9,0.1-6.7,0-9.2-0.3c-2.5-0.3-4.5-0.4-6.9-0.4c-1.8,0.1-3.3,0.3-5,1.2c-0.9-1.3-3.4-2-5.1-1.8
						l0.9-9.5l1.2,0l0.1,3.2c0,1.5,0.4,1.9,1.4,1.9c1,0,1.3-0.5,1.3-2L148.7,96.7z"/>
					<path class="st12" d="M210.1,77c0.1,2.2,0.8,4.9,1.6,5.5c-0.8,0.6-1.5,1.2-1.5,2.3c0,1,0.4,1.7,1.4,2.1
						c-1.3,0.9-2.9,4.3-3.2,7.2c-0.1,2.8,0.9,3.7,3.6,3.6c3-0.1,4-0.9,3.6-3.8c-0.4-3.1-2.2-5.9-3.2-7c1-0.7,1.5-1.3,1.3-2.2
						c0-0.9-0.5-1.6-1.6-2.2c0.8-0.7,0.9-4.3,0.9-5.6l-0.9-10.5c0-1.1-0.4-1.5-0.9-1.5c-0.5,0-0.7,0.5-0.6,1.5L210.1,77L210.1,77z
						 M205.9,119.4c0,0.9,0.5,1.4,1.2,1.4c0.7,0,1.2-0.7,1.3-1.2l0.2-3.8l1.2,0l0.2,9.5c-1.5,0-3.3,0.7-3.8,1.8
						c-0.7-0.4-1.5-0.6-2.5-0.8c-1-0.1-2-0.2-2.9-0.1c-1.7,0-3.3,0.4-4.7,1.2c-0.5-1.1-2.7-1.9-3.9-1.9l0.8-9.1l1.2,0l0.1,3.4
						c0,0.8,0.4,1.2,1.4,1.2c1,0,1.2-0.8,1.1-1.2l1.9-23.8c0.5-5.6-0.8-7.3-2-8.4c0.8-0.5,1.8-1.4,1.8-2.2c0-0.8-0.7-1.6-1.7-2.2
						c1.8-1.4,3.5-2.8,4.1-9.9l3-27.6c1.5-0.3,2.5-0.9,2.8-1.9c0.5,0.3,1.7,0.5,2.9,0.7c1.3,0.2,2.9,0.3,3.9,0.2
						c2.3-0.1,5.3-0.6,6.3-1.3c0.5,1.1,1.5,1.6,2.7,1.8l4.2,27.4c1.2,8.5,2.7,8.7,4.8,9.7c-1.5,0.6-2.1,1.6-2.1,2.2
						c0,0.8,0.9,1.8,2.2,2.2c-1.1,1-2.3,3.9-1.6,8.6l3.2,23.4c0,0.9,0.5,1.4,1.4,1.4c0.7,0,1.2-0.8,1.1-1.3l-0.1-3.4l1.3,0l1.7,9
						c-1.3,0-3.2,1-3.5,2.1c-0.7-0.4-2-0.6-3.2-0.8c-1.3-0.1-2.7-0.1-3.9-0.1c-2.3,0.1-5.4,0.5-6.8,1.3c-0.5-1.1-3.2-1.8-4.9-1.7
						l-0.5-8.9l1.2,0l0.6,3.5c0.2,0.4,0.5,1,1.2,0.9c0.7,0,0.8-0.8,0.6-1.5l-1.4-11c-0.4-1.1-1.4-2.2-3.2-2.2l-5.4,0.1
						c-1.7,0-2.7,1.2-2.6,2.4L205.9,119.4z"/>
					<path class="st12" d="M244,95c-0.1-5.7-1.5-7.4-3-8.3c1.2-0.6,1.8-1.5,1.8-2.2c0-0.8-0.7-1.7-1.9-2.5c1.8-1.1,2.8-2.5,2.6-8.8
						L243,50.7c0-1.6-0.2-1.8-1.2-1.8c-0.8,0-1.3,0.5-1.3,1.6l0.1,3.3l-1.2,0l-1.9-9.5c2.3-0.1,4.7-0.8,5.8-1.7
						c0.8,0.2,1.5,0.4,2.4,0.6c0.8,0.2,1.9,0.4,2.9,0.4c2.2-0.1,3.8-0.8,5.2-1.2c0.9,0.8,3.6,1.8,5.6,1.5l12.1,37.5l0.8,0l-0.8-31.6
						c0-1.2-0.7-1.3-1.4-1.3c-0.5,0-1.3,0.5-1.3,1.9l0.1,2.8l-1.3,0l-1.7-9.5c2.2-0.1,4.8-1.1,5.5-1.8c0.5,0.1,1.2,0.4,2,0.6
						c0.8,0.2,1.9,0.4,2.7,0.4c2-0.1,4-0.8,5-1.2c0.4,0.8,2.6,1.6,4.4,1.5l-1.1,9.4l-1.2,0l-0.1-2.9c0-1.1-0.5-1.4-1.4-1.4
						c-0.8,0-1.2,0.4-1.1,2.1l0.5,22.1c0.1,5.6,2,7.8,3.2,8.5c-1.8,0.9-2,1.7-2,2.4c0,0.8,0.9,1.7,2.4,2.2
						c-1.5,0.8-3.1,5.4-3.1,11.5l0.1,26.1c-1.8,0-5,0.8-6.2,2c-1.4-1.2-4.1-1.5-6.1-1.5l-8.1-29.8c-1.3-4.4-3-6.8-4.5-7.6
						c0.8-0.6,1.3-1.6,1.1-2.3c0-0.9-0.2-1.5-1.9-2.5c0.8-1.1,0.6-3.8,0-5.8l-2.4-10.1l-0.8,0l0.2,10.1c0.1,3,1,5.2,2,5.8
						c-1.2,0.7-1.8,1.6-1.8,2.4c0,0.8,0.7,1.7,1.9,2.2c-1.1,1.1-1.8,3.6-1.6,8.9l0.5,22.8c0,1.4,0.7,1.6,1.4,1.6
						c0.5,0,1.2-0.4,1.1-1.7l-0.1-3.4l1.2,0l1.6,9.2c-2.2,0.1-5,0.9-6,2c-0.3-0.3-1-0.6-1.9-0.7c-0.8-0.2-1.9-0.3-2.7-0.3
						c-1.7,0-3.3,0.4-4.2,1.2c-0.9-1.1-3.2-1.9-5.1-1.8l1.3-9.2l1.2,0l0.1,3.9c0,0.9,0.7,1.1,1.4,1.1c0.8,0,1.2-0.6,1.1-2.3L244,95z
						"/>
					<path class="st12" d="M332.2,111.2c0.1,5.7,2.5,6.9,5.4,6.8c4.7-0.1,6.1-2.3,6.1-6c-0.2-8.6-4.6-17.1-8.6-22.4
						c-2.3-3.1-4-4.2-5.8-4.5c0.8-0.9,0.8-2.2,0.4-2.8c-0.7-0.9-2-1.5-3.6-1.6c0.8-1.3,0.9-3.4-1-6.8c-2.1-3.9-5.8-12.8-6-20.8
						c-0.2-6.5,4.7-12.5,15.9-12.8c2-0.1,3.5,0.2,5.2,0.4c1.5,0.2,3,0.5,4.7,0.4c1.3,0,2.8-0.7,3.5-1.2c0.9,1.4,3.1,2.1,4.9,1.9
						c-0.8,0.9-1.3,3.6-1.2,5.9l0.2,9c0.1,3.8,0.8,5.5,2.2,6.6c-4.2,1.2-5.5,2.8-5.3,9.2l-1.3,0c-0.2-6.7-1.4-7.8-5.7-8.9
						c1.1-1.3,1.6-2.7,1.5-6.9l-0.1-5.9c-0.1-3.7-2.8-5.5-6.5-5.4c-3.4,0.1-4.6,2-4.6,4.9c0.1,4.2,2.5,11.9,3.7,14.7
						c2.5,5.6,7.3,12.9,11.7,14.1c-1.2,0.8-1.5,2.1-0.9,2.7c0.5,0.7,2,1.1,3.4,1.1c-1,1.3-1.4,3.7,1.2,8.4
						c1.9,3.5,5.1,11.6,5.3,17.6c0.2,6.9-4.7,14.3-16.9,14.6c-2.7,0.1-4.7-0.1-6.4-0.4c-1.7-0.3-3.2-0.5-4.7-0.4
						c-1.5,0-2.2,0.5-3.2,1.2c-1-1.2-2.6-1.9-4.9-2.2c1-0.9,1.6-2.2,1.5-5.8l-0.3-11.6c-0.1-2.9-0.8-5-1.8-5.8c4.5-1,6-2.1,5.8-8.5
						l1.2,0c0.1,6.2,2,7.5,5.9,8.2c-0.8,0.8-1.1,2.5-1,5.9L332.2,111.2z"/>
					<path class="st12" d="M374.2,72.6c0,2.2,0.8,4.9,1.6,5.5c-0.8,0.6-1.5,1.2-1.5,2.3c0,1,0.4,1.7,1.4,2.1
						c-1.3,0.9-2.9,4.3-3.2,7.2c-0.1,2.8,0.9,3.7,3.6,3.6c3-0.1,4-0.9,3.6-3.8c-0.4-3.1-2.2-5.9-3.2-7c1-0.7,1.5-1.3,1.3-2.2
						c0-0.9-0.5-1.6-1.6-2.2c0.8-0.7,0.9-4.3,0.9-5.6L376.3,62c0-1.1-0.4-1.5-0.9-1.5c-0.5,0-0.7,0.5-0.6,1.5L374.2,72.6L374.2,72.6
						z M370,114.9c0,0.9,0.5,1.4,1.2,1.4c0.7,0,1.2-0.7,1.3-1.2l0.2-3.8l1.2,0l0.2,9.5c-1.5,0-3.3,0.7-3.8,1.8
						c-0.7-0.4-1.5-0.6-2.5-0.8c-1-0.1-2-0.2-2.9-0.1c-1.7,0-3.3,0.4-4.7,1.2c-0.5-1.1-2.7-1.9-3.9-1.9l0.8-9.1l1.2,0l0.1,3.4
						c0,0.8,0.4,1.2,1.4,1.2c1,0,1.2-0.8,1.1-1.2l1.9-23.8c0.5-5.6-0.8-7.3-2-8.4c0.8-0.5,1.8-1.4,1.8-2.2c0-0.8-0.7-1.6-1.7-2.2
						c1.8-1.4,3.5-2.8,4.1-9.9l3-27.6c1.5-0.3,2.5-0.9,2.8-1.9c0.5,0.3,1.7,0.5,2.9,0.7c1.3,0.2,2.9,0.3,3.9,0.2
						c2.3-0.1,5.3-0.6,6.3-1.3c0.5,1.1,1.5,1.6,2.7,1.8l4.2,27.4c1.2,8.5,2.7,8.7,4.8,9.7c-1.5,0.6-2.1,1.6-2.1,2.2
						c0,0.8,0.9,1.8,2.2,2.2c-1.2,1-2.3,3.9-1.6,8.6l3.2,23.4c0,0.9,0.5,1.4,1.4,1.4c0.7,0,1.2-0.8,1.1-1.3l-0.1-3.4l1.3,0l1.7,9
						c-1.3,0-3.2,1-3.5,2.1c-0.7-0.4-2-0.6-3.2-0.8c-1.3-0.1-2.7-0.1-3.9-0.1c-2.3,0.1-5.4,0.5-6.8,1.3c-0.5-1.1-3.2-1.8-4.9-1.7
						l-0.5-8.9l1.2,0l0.6,3.5c0.2,0.4,0.5,1,1.2,0.9c0.7,0,0.8-0.8,0.6-1.5l-1.4-11c-0.4-1.1-1.4-2.2-3.2-2.2l-5.4,0.1
						c-1.7,0-2.7,1.2-2.6,2.4L370,114.9z"/>
				</g>
				<path class="st12" d="M299.7,80.3c-5.7,0.2-10.4,0.7-11.4,1c0.7-0.7,1.3-2.6,1.3-3.5c0-0.9-0.7-2.6-1.1-3.2
					c0.7,0.2,5,0.3,11.1,0.1l6.5-0.2c6-0.2,10-0.5,11-0.7c-0.7,0.7-0.9,2.4-0.9,3.3c0,0.9,0.4,2.8,1.1,3.5c-1-0.2-5.4-0.5-11.4-0.3
					L299.7,80.3z"/>
			</g>
		</g>
	</g>
	<path class="st13" d="M532.5,195.4v-2.1h1.9v2.1H532.5L532.5,195.4z"/>
</g>
</svg>
